<?xml version="1.0" encoding="utf-8"?>
<!-- Generator: Adobe Illustrator 26.2.1, SVG Export Plug-In . SVG Version: 6.00 Build 0)  -->
<svg version="1.1" id="Layer_1" xmlns="http://www.w3.org/2000/svg" xmlns:xlink="http://www.w3.org/1999/xlink" x="0px" y="0px"
	 viewBox="0 0 225.88 15" style="enable-background:new 0 0 225.88 15;" xml:space="preserve">
<style type="text/css">
	.st0{fill:#231F20;}
	.st1{fill:#EF3E42;}
</style>
<g>
	<rect x="83.88" y="0" class="st0" width="3.99" height="14.93"/>
	<path class="st0" d="M17.99,8.35c-0.77-1.24-2.12-2.17-3.53-2.27c0,0-0.25-0.02-0.25-0.02v0H4.32C3.49,6,2.83,5.3,2.82,4.46
		c0.01-0.85,0.67-1.57,1.51-1.63h13.5V0H4.44v0C4.43,0,4.19,0.02,4.19,0.02C2.02,0.17,0,2.28,0,4.46c0,0.76,0.25,1.51,0.66,2.17
		C1.43,7.87,2.78,8.8,4.19,8.9c0,0,0.25,0.02,0.25,0.02v0h9.88c0.83,0.06,1.49,0.76,1.5,1.61c-0.01,0.85-0.67,1.57-1.51,1.63H1v2.83
		H14.2v0c0.01,0,0.25-0.02,0.25-0.02c2.17-0.15,4.19-2.27,4.19-4.44C18.65,9.76,18.4,9.01,17.99,8.35z"/>
	<polygon class="st0" points="37.77,0 19.93,0 19.93,2.83 26.99,2.83 26.99,14.98 30.82,14.98 30.82,2.83 37.77,2.83 	"/>
	<path class="st0" d="M54.91,0v10.64c-0.06,0.82-0.75,1.48-1.57,1.51h-8.01c-0.82-0.03-1.51-0.69-1.57-1.51V0h-3.84v10.52
		c0,0,0.02,0.25,0.02,0.25c0.03,0.47,0.16,0.93,0.36,1.37c0.4,0.89,1.09,1.67,1.92,2.18c0.18,0.11,0.36,0.21,0.55,0.3
		c0.51,0.23,1.05,0.37,1.6,0.37h9.94c0.55,0,1.09-0.14,1.6-0.37c0.19-0.09,0.37-0.18,0.55-0.3c0.83-0.52,1.52-1.3,1.92-2.18
		c0.2-0.44,0.32-0.9,0.36-1.37c0,0,0.02-0.25,0.02-0.25V0H54.91z"/>
	<path class="st0" d="M80.24,2.95C79.11,1.48,76.94,0,74.7,0H60.92l0,14.93h0v0.04l13.77-0.01c2.24,0,4.4-1.48,5.54-2.95
		c0.29-0.38,1.48-2.06,1.48-4.53v0C81.72,5.02,80.53,3.33,80.24,2.95z M77.62,10.3c-0.51,0.66-1.51,1.31-2.41,1.63
		c-0.31,0.11-0.64,0.21-0.97,0.22H64.8l0-9.32h9.44c0.34,0.02,0.67,0.1,0.97,0.21c0.9,0.32,1.9,0.97,2.41,1.63
		c0.18,0.24,0.92,1.28,0.92,2.82C78.54,9.01,77.81,10.06,77.62,10.3z"/>
	<g>
		<path class="st0" d="M94.89,12.15c-0.82-0.03-1.51-0.72-1.57-1.54l0-3.13l0-3.13c0.06-0.82,0.75-1.49,1.57-1.53
			c0.02,0,0.09,0,0.11,0h9.31c0.02,0,0.09,0,0.11,0c0.82,0.03,1.51,0.71,1.57,1.53l0,5.6h3.4V4.47c0,0-0.02-0.25-0.02-0.25
			c-0.03-0.47-0.16-0.93-0.36-1.37c-0.4-0.89-1.09-1.66-1.92-2.18c-0.18-0.11-0.36-0.21-0.55-0.29C106.04,0.14,105.5,0,104.95,0
			H94.38c-0.55,0-1.1,0.14-1.61,0.37c-0.19,0.09-0.37,0.18-0.55,0.29c-0.83,0.52-1.52,1.3-1.92,2.18c-0.2,0.44-0.32,0.9-0.36,1.37
			c0,0-0.02,0.25-0.02,0.25v6.02c0,0,0.02,0.25,0.02,0.25c0.03,0.47,0.16,0.93,0.36,1.37c0.4,0.88,1.09,1.66,1.92,2.18
			c0.18,0.11,0.36,0.21,0.55,0.29c0.51,0.23,1.05,0.37,1.6,0.37l5.29,0l4.13,0v-2.82H94.89z"/>
	</g>
	<path class="st1" d="M129.85,8.35c-0.77-1.24-2.12-2.17-3.53-2.27c0,0-0.25-0.02-0.25-0.02v0h-9.88c-0.83-0.06-1.29-0.76-1.3-1.61
		c0.01-0.85,0.48-1.57,1.31-1.63h13.29V0h-13.17l0,0c-0.02,0-0.25,0.02-0.25,0.02c-2.17,0.15-4,2.27-4,4.44
		c0,0.76,0.05,1.51,0.46,2.17c0.77,1.24,2.12,2.17,3.53,2.27c0,0,0.25,0.02,0.25,0.02v0h9.88c0.83,0.06,1.49,0.76,1.5,1.61
		c-0.01,0.85-0.67,1.57-1.51,1.63h-13.22v2.83h13.1v0c0.01,0,0.25-0.02,0.25-0.02c2.17-0.15,4.19-2.27,4.19-4.44
		C130.51,9.76,130.26,9.01,129.85,8.35z"/>
	<rect x="132.1" class="st1" width="3.66" height="14.93"/>
	<path class="st1" d="M147.96,6.06v2.85h5.95v3.24h-10.49c-0.82-0.03-1.51-0.72-1.57-1.54V4.35c0.06-0.82,0.75-1.48,1.57-1.51
		c0.02,0,0.09,0,0.11,0h14.35V0H142.9c-0.55,0-1.09,0.14-1.6,0.37c-0.19,0.09-0.37,0.18-0.55,0.29c-0.83,0.52-1.52,1.3-1.92,2.18
		c-0.2,0.44-0.32,0.9-0.36,1.37c0,0-0.02,0.25-0.02,0.25v6.02c0,0,0.02,0.25,0.02,0.25c0.03,0.47,0.16,0.93,0.36,1.37
		c0.4,0.88,1.09,1.66,1.92,2.18c0.18,0.11,0.36,0.21,0.55,0.29c0.51,0.23,1.05,0.37,1.6,0.37l14.94,0V6.06H147.96z"/>
	<rect x="105.92" y="12.15" class="st1" width="3.97" height="2.82"/>
	<polygon class="st1" points="178.84,0 175.05,0 175.05,10.53 163.83,0 160.05,0 160.05,14.99 163.84,14.99 163.84,4.46 
		175.05,14.99 175.05,14.99 178.84,14.99 	"/>
	<path class="st1" d="M195.97,0v10.64c-0.06,0.82-0.84,1.48-1.66,1.51h-8c-0.82-0.04-1.51-0.69-1.57-1.51V0h-3.67v10.52
		c0,0,0.02,0.25,0.02,0.25c0.03,0.47,0.16,0.93,0.36,1.37c0.4,0.89,1.09,1.67,1.92,2.18c0.18,0.11,0.36,0.21,0.55,0.3
		c0.51,0.23,1.05,0.37,1.6,0.37h9.65c0.55,0,1.09-0.14,1.6-0.37c0.19-0.09,0.37-0.18,0.55-0.3c0.83-0.52,1.61-1.3,2.01-2.18
		c0.2-0.44,0.32-0.9,0.36-1.37c0,0,0.02-0.25,0.02-0.25V0H195.97z"/>
	<polygon class="st1" points="221.74,0 221.74,0 213.93,10.99 205.76,0 205.75,0 201.93,0 201.93,15 205.76,15 205.76,5.58 
		212.82,14.99 215.05,14.99 221.97,5.57 221.97,15 225.88,15 225.88,0 	"/>
</g>
</svg>
